<?xml version="1.0" encoding="utf-8"?>
<!-- Generator: Adobe Illustrator 26.0.2, SVG Export Plug-In . SVG Version: 6.00 Build 0)  -->
<svg version="1.1" id="Layer_1" xmlns="http://www.w3.org/2000/svg" xmlns:xlink="http://www.w3.org/1999/xlink" x="0px" y="0px"
	 viewBox="0 0 512 512" style="enable-background:new 0 0 512 512;" xml:space="preserve">
<style type="text/css">
	.st0{fill:#FF2B2B;}
</style>
<g>
	<g>
		<g>
			<path class="st0" d="M478.7,201.7h-16.4c-5.6,0-10.5-3.6-12.3-9c-3.3-10-7.4-19.9-12.2-29.3c-2.5-4.9-1.5-10.9,2.4-14.9
				l11.6-11.6c13-13,13-34.1,0-47.1l-29.7-29.7c-13-13-34.1-13-47.1,0l-11.6,11.6c-4,4-9.9,4.9-14.9,2.4
				c-9.4-4.8-19.2-8.9-29.3-12.2c-5.4-1.8-9-6.7-9-12.3V33.3C310.3,14.9,295.4,0,277,0h-42c-18.4,0-33.3,14.9-33.3,33.3v16.4
				c0,5.6-3.6,10.5-9,12.3c-10,3.3-19.9,7.4-29.3,12.2c-4.9,2.5-10.9,1.5-14.9-2.4l-11.6-11.6c-13-13-34.1-13-47.1,0L60.1,89.8
				c-13,13-13,34.1,0,47.1l11.6,11.6c4,4,4.9,9.9,2.4,14.9c-4.8,9.4-8.9,19.2-12.2,29.3c-1.8,5.4-6.7,9-12.3,9H33.3
				C14.9,201.7,0,216.6,0,235v42c0,18.4,14.9,33.3,33.3,33.3h16.4c5.6,0,10.5,3.6,12.3,9c3.3,10,7.4,19.9,12.2,29.3
				c2.5,4.9,1.5,10.9-2.4,14.9l-11.6,11.6c-13,13-13,34.1,0,47.1l29.7,29.7c13,13,34.1,13,47.1,0l11.6-11.6c4-4,9.9-4.9,14.9-2.4
				c9.4,4.8,19.2,8.9,29.3,12.2c5.4,1.8,9,6.7,9,12.3v16.4c0,18.4,14.9,33.3,33.3,33.3h42c18.4,0,33.3-14.9,33.3-33.3v-16.4
				c0-5.6,3.6-10.5,9-12.3c10-3.3,19.9-7.4,29.3-12.2c4.9-2.5,10.9-1.5,14.9,2.4l11.6,11.6c13,13,34.1,13,47.1,0l29.7-29.7
				c13-13,13-34.1,0-47.1l-11.6-11.6c-4-4-4.9-9.9-2.4-14.9c4.8-9.4,8.9-19.2,12.2-29.3c1.8-5.4,6.7-9,12.3-9h16.4
				c18.4,0,33.3-14.9,33.3-33.3v-42C512,216.6,497.1,201.7,478.7,201.7z M485.5,276.5c0,6.9-5.6,12.6-12.6,12.6h-16
				c-14.1,0-26.5,9-30.9,22.5c-2.9,8.8-6.4,17.4-10.6,25.6c-6.4,12.5-4,27.6,6,37.6l11.3,11.3c4.9,4.9,4.9,12.9,0,17.8l-28.9,28.9
				c-4.9,4.9-12.9,4.9-17.8,0l-11.3-11.3c-10-10-25.1-12.4-37.6-6c-8.2,4.2-16.9,7.8-25.6,10.6c-13.4,4.4-22.5,16.8-22.5,30.9v16
				c0,6.9-5.6,12.6-12.6,12.6h-40.9c-6.9,0-12.6-5.6-12.6-12.6v-16c0-14.1-9-26.5-22.5-30.9c-8.8-2.9-17.4-6.4-25.6-10.6
				c-4.7-2.4-9.7-3.5-14.6-3.5c-8.4,0-16.7,3.3-22.9,9.5L126,432.8c-4.9,4.9-12.9,4.9-17.8,0l-28.9-28.9c-4.9-4.9-4.9-12.9,0-17.8
				l11.3-11.3c10-10,12.4-25.1,6-37.6c-4.2-8.2-7.8-16.9-10.6-25.6C81.5,298.1,69.1,289,55,289h-16c-6.9,0-12.6-5.6-12.6-12.6v-40.9
				c0-6.9,5.6-12.6,12.6-12.6h16c14.1,0,26.5-9,30.9-22.5c2.9-8.8,6.4-17.4,10.6-25.6c6.4-12.5,4-27.6-6-37.6L79.2,126
				c-4.9-4.9-4.9-12.9,0-17.8l28.9-28.9c4.9-4.9,12.9-4.9,17.8,0l11.3,11.3c10,10,25.1,12.4,37.6,6c8.2-4.2,16.9-7.8,25.6-10.6
				C213.9,81.5,223,69.1,223,55v-16c0-6.9,5.6-12.6,12.6-12.6h40.9c6.9,0,12.6,5.6,12.6,12.6v16c0,14.1,9,26.5,22.5,30.9
				c8.8,2.9,17.4,6.4,25.6,10.6c12.5,6.4,27.6,4,37.6-6L386,79.2c4.9-4.9,12.9-4.9,17.8,0l28.9,28.9c4.9,4.9,4.9,12.9,0,17.8
				l-11.3,11.3c-10,10-12.4,25.1-6,37.6c4.2,8.2,7.8,16.9,10.6,25.6c4.4,13.4,16.8,22.5,30.9,22.5h16c6.9,0,12.6,5.6,12.6,12.6
				L485.5,276.5L485.5,276.5z"/>
			<path class="st0" d="M256,164.2c-50.6,0-91.8,41.2-91.8,91.8s41.2,91.8,91.8,91.8s91.8-41.2,91.8-91.8S306.6,164.2,256,164.2z
				 M256,325c-38,0-69-30.9-69-69s30.9-69,69-69s69,30.9,69,69S294,325,256,325z"/>
		</g>
	</g>
</g>
</svg>
